<svg width="135" height="54" viewBox="0 0 135 54" fill="none" xmlns="http://www.w3.org/2000/svg">
<path d="M14.95 47.5C10.95 47.5 7.8 46.4167 5.5 44.25C3.2 42.0833 2 38.9333 1.9 34.8V33.05C2.03333 29.1167 3.25 26.05 5.55 23.85C7.88333 21.6167 11 20.5 14.9 20.5C17.7333 20.5 20.1167 21.0833 22.05 22.25C24.0167 23.3833 25.4833 24.95 26.45 26.95C27.45 28.95 27.95 31.25 27.95 33.85V35.05C27.95 35.3833 27.8333 35.6833 27.6 35.95C27.3667 36.1833 27.0667 36.3 26.7 36.3H10.7V36.65C10.7667 38.2167 11.15 39.4833 11.85 40.45C12.55 41.4167 13.5667 41.9 14.9 41.9C15.7333 41.9 16.4167 41.7333 16.95 41.4C17.4833 41.0333 17.9667 40.6 18.4 40.1C18.7 39.7333 18.9333 39.5167 19.1 39.45C19.3 39.35 19.6 39.3 20 39.3H26.2C26.5 39.3 26.75 39.4 26.95 39.6C27.1833 39.7667 27.3 40 27.3 40.3C27.3 41.1667 26.8 42.1667 25.8 43.3C24.8333 44.4333 23.4167 45.4167 21.55 46.25C19.6833 47.0833 17.4833 47.5 14.95 47.5ZM19.15 31.35V31.25C19.15 29.6167 18.7667 28.3333 18 27.4C17.2667 26.4333 16.2333 25.95 14.9 25.95C13.6 25.95 12.5667 26.4333 11.8 27.4C11.0667 28.3333 10.7 29.6167 10.7 31.25V31.35H19.15ZM44.5875 47.5C40.8208 47.5 37.7708 46.5 35.4375 44.5C33.1042 42.4667 31.8542 39.65 31.6875 36.05L31.6375 34.05L31.6875 32C31.8208 28.4 33.0542 25.5833 35.3875 23.55C37.7542 21.5167 40.8208 20.5 44.5875 20.5C47.4208 20.5 49.8042 21.0167 51.7375 22.05C53.7042 23.05 55.1542 24.2667 56.0875 25.7C57.0542 27.1 57.5708 28.3833 57.6375 29.55C57.6708 29.8833 57.5542 30.1833 57.2875 30.45C57.0542 30.6833 56.7542 30.8 56.3875 30.8H50.0375C49.6708 30.8 49.3875 30.7167 49.1875 30.55C48.9875 30.3833 48.8042 30.1333 48.6375 29.8C48.2375 28.7667 47.7208 28.0333 47.0875 27.6C46.4875 27.1667 45.7042 26.95 44.7375 26.95C42.0042 26.95 40.5875 28.7167 40.4875 32.25L40.4375 34.15L40.4875 35.8C40.5542 37.6 40.9375 38.9333 41.6375 39.8C42.3708 40.6333 43.4042 41.05 44.7375 41.05C45.7708 41.05 46.5875 40.8333 47.1875 40.4C47.7875 39.9667 48.2708 39.2333 48.6375 38.2C48.8042 37.8667 48.9875 37.6167 49.1875 37.45C49.3875 37.2833 49.6708 37.2 50.0375 37.2H56.3875C56.7208 37.2 57.0042 37.3167 57.2375 37.55C57.5042 37.75 57.6375 38.0167 57.6375 38.35C57.6375 39.4167 57.1708 40.6667 56.2375 42.1C55.3375 43.5333 53.9042 44.8 51.9375 45.9C49.9708 46.9667 47.5208 47.5 44.5875 47.5ZM63.3797 47C63.0464 47 62.7464 46.8833 62.4797 46.65C62.2464 46.3833 62.1297 46.0833 62.1297 45.75V12.75C62.1297 12.3833 62.2464 12.0833 62.4797 11.85C62.7464 11.6167 63.0464 11.5 63.3797 11.5H69.7797C70.1464 11.5 70.4464 11.6167 70.6797 11.85C70.913 12.0833 71.0297 12.3833 71.0297 12.75V23.9C73.0297 21.6333 75.663 20.5 78.9297 20.5C80.863 20.5 82.5797 20.9333 84.0797 21.8C85.613 22.6667 86.813 23.95 87.6797 25.65C88.5464 27.35 88.9797 29.4 88.9797 31.8V45.75C88.9797 46.0833 88.863 46.3833 88.6297 46.65C88.3964 46.8833 88.0964 47 87.7297 47H81.2797C80.9464 47 80.6464 46.8833 80.3797 46.65C80.1464 46.3833 80.0297 46.0833 80.0297 45.75V32.1C80.0297 30.5333 79.6464 29.3333 78.8797 28.5C78.1464 27.6333 77.063 27.2 75.6297 27.2C74.1964 27.2 73.063 27.6333 72.2297 28.5C71.4297 29.3333 71.0297 30.5333 71.0297 32.1V45.75C71.0297 46.1167 70.913 46.4167 70.6797 46.65C70.4464 46.8833 70.1464 47 69.7797 47H63.3797ZM106.949 47.5C102.816 47.5 99.6326 46.5167 97.3992 44.55C95.1659 42.5833 93.9492 39.8167 93.7492 36.25C93.7159 35.8167 93.6992 35.0667 93.6992 34C93.6992 32.9333 93.7159 32.1833 93.7492 31.75C93.9492 28.2167 95.1992 25.4667 97.4992 23.5C99.7992 21.5 102.949 20.5 106.949 20.5C110.983 20.5 114.149 21.5 116.449 23.5C118.749 25.4667 119.999 28.2167 120.199 31.75C120.233 32.1833 120.249 32.9333 120.249 34C120.249 35.0667 120.233 35.8167 120.199 36.25C119.999 39.8167 118.783 42.5833 116.549 44.55C114.316 46.5167 111.116 47.5 106.949 47.5ZM106.949 41.4C108.416 41.4 109.499 40.9667 110.199 40.1C110.899 39.2 111.299 37.8333 111.399 36C111.433 35.6667 111.449 35 111.449 34C111.449 33 111.433 32.3333 111.399 32C111.299 30.2 110.883 28.85 110.149 27.95C109.449 27.05 108.383 26.6 106.949 26.6C104.183 26.6 102.716 28.4 102.549 32L102.499 34L102.549 36C102.616 37.8333 102.999 39.2 103.699 40.1C104.433 40.9667 105.516 41.4 106.949 41.4Z" fill="#FCFCFC"/>
<rect x="114.196" y="6" width="5" height="10" transform="rotate(18.6378 114.196 6)" fill="#FF5F77"/>
<rect x="124.889" y="11" width="5" height="10" transform="rotate(43.544 124.889 11)" fill="#FFF360"/>
<rect x="133.982" y="23" width="5" height="10" transform="rotate(86.5503 133.982 23)" fill="#00D9BD"/>
</svg>
